<svg width="38" height="53" viewBox="0 0 38 53" fill="none" xmlns="http://www.w3.org/2000/svg">
<g clip-path="url(#clip0_29_117)">
<path d="M26.4943 2.22059C26.9283 2.74656 27.1495 3.45623 27.5922 4.87558L37.2616 35.8824C33.6296 34.0425 29.7314 32.7541 25.7013 32.0618L19.4055 11.2937C19.3553 11.1281 19.2515 10.9828 19.1096 10.8795C18.9678 10.7763 18.7955 10.7206 18.6185 10.7209C18.4415 10.7211 18.2694 10.7773 18.1279 10.881C17.9864 10.9847 17.883 11.1304 17.8333 11.2962L11.6138 32.0514C7.56555 32.7405 3.64934 34.0308 0.00140381 35.8775L9.71817 4.86833C10.1622 3.45155 10.3843 2.74301 10.8184 2.21804C11.2015 1.75461 11.6999 1.39471 12.266 1.17264C12.9071 0.921021 13.6662 0.921021 15.1841 0.921021H22.1242C23.6442 0.921021 24.4041 0.921021 25.0459 1.17306C25.6125 1.39567 26.1111 1.75633 26.4941 2.22059" fill="white"/>
<path d="M27.6512 37.3579C26.0572 38.6883 22.8755 39.5957 19.2106 39.5957C14.7126 39.5957 10.9425 38.2288 9.94214 36.3905C9.58438 37.444 9.50418 38.6499 9.50418 39.4201C9.50418 39.4201 9.26854 43.2026 11.9636 45.8335C11.9636 44.4674 13.0982 43.3599 14.4976 43.3599C16.8963 43.3599 16.8933 45.4027 16.8913 47.06L16.8912 47.2079C16.8912 49.7234 18.466 51.8798 20.706 52.7887C20.3612 52.096 20.1826 51.3357 20.1837 50.5656C20.1837 48.1665 21.6266 47.2733 23.3036 46.2351C24.6378 45.4091 26.1203 44.4913 27.1419 42.6502C27.6922 41.6584 27.9795 40.548 27.9777 39.4201C27.9777 38.7012 27.8633 38.0083 27.6512 37.3579Z" fill="#FF5D01"/>
</g>
<defs>
<clipPath id="clip0_29_117">
<rect width="37.2627" height="52" fill="white" transform="translate(0 0.921021)"/>
</clipPath>
</defs>
</svg>
