<svg width="50" height="50" viewBox="0 0 50 50" fill="none" xmlns="http://www.w3.org/2000/svg">
<path d="M20.35 0.0148926C22.1175 0.0148926 23.125 1.77489 23.125 3.54239V14.3749H20.8875C20.4524 13.2992 19.6567 12.4084 18.6368 11.855C17.6169 11.3017 16.4363 11.1203 15.2973 11.342C14.1583 11.5636 13.1319 12.1745 12.3939 13.0699C11.6559 13.9653 11.2524 15.0896 11.2524 16.2499C11.2524 17.4102 11.6559 18.5344 12.3939 19.4299C13.1319 20.3253 14.1583 20.9362 15.2973 21.1578C16.4363 21.3795 17.6169 21.1981 18.6368 20.6447C19.6567 20.0914 20.4524 19.2006 20.8875 18.1249H23.125V45.3699C23.125 46.8599 22.495 48.3424 21.1675 49.0199C19.9637 49.6503 18.6263 49.9829 17.2675 49.9899C13.4925 49.9899 10.685 48.0799 8.8775 45.8199C7.62794 44.2589 6.75532 42.4306 6.3275 40.4774C5.16013 40.1327 4.07893 39.5448 3.155 38.7524C1.38 37.2249 0 34.7749 0 31.1649C0 29.2774 0.135 27.6324 0.475 26.2499H11C12.695 26.2499 14.1 27.4999 14.3375 29.1274C13.266 29.5707 12.382 30.3725 11.8366 31.3958C11.2912 32.419 11.1183 33.6 11.3477 34.7366C11.5771 35.8733 12.1943 36.8948 13.0939 37.6265C13.9934 38.3582 15.1193 38.7545 16.2788 38.7475C17.4383 38.7406 18.5593 38.3309 19.4501 37.5885C20.3408 36.8462 20.9458 35.8173 21.1616 34.678C21.3773 33.5388 21.1904 32.3599 20.6329 31.3433C20.0753 30.3266 19.1817 29.5353 18.105 29.1049C17.9737 27.3102 17.1681 25.6317 15.8502 24.4065C14.5322 23.1813 12.7995 22.5001 11 22.4999H2.6C2.97363 22.1894 3.39051 21.9351 3.8375 21.7449C3.58215 20.8258 3.43284 19.8805 3.3925 18.9274C3.31 17.0899 3.585 15.1774 4.13 13.4749C4.67 11.7999 5.525 10.1674 6.725 9.03989C7.47577 8.30366 8.43032 7.80983 9.465 7.62239C9.9625 5.52239 11.23 3.78739 12.8475 2.52989C14.925 0.909893 17.6475 0.0148926 20.3475 0.0148926M26.875 37.4999H31C32.8897 37.4999 34.7019 36.7492 36.0381 35.413C37.3743 34.0768 38.125 32.2646 38.125 30.3749V25.8874C39.2007 25.4523 40.0915 24.6566 40.6448 23.6367C41.1982 22.6168 41.3796 21.4362 41.1579 20.2972C40.9363 19.1582 40.3254 18.1318 39.43 17.3938C38.5346 16.6558 37.4103 16.2523 36.25 16.2523C35.0897 16.2523 33.9654 16.6558 33.07 17.3938C32.1746 18.1318 31.5637 19.1582 31.3421 20.2972C31.1204 21.4362 31.3018 22.6168 31.8552 23.6367C32.4085 24.6566 33.2993 25.4523 34.375 25.8874V30.3749C34.375 31.27 34.0194 32.1284 33.3865 32.7614C32.7536 33.3943 31.8951 33.7499 31 33.7499H26.875V3.54239C26.875 1.77489 27.8825 0.0148926 29.65 0.0148926C32.355 0.0148926 35.075 0.909893 37.1525 2.52989C38.77 3.78739 40.0375 5.52489 40.535 7.62239C41.585 7.79739 42.52 8.33239 43.275 9.03989C44.475 10.1674 45.33 11.7974 45.87 13.4749C46.415 15.1774 46.69 17.0899 46.6075 18.9274C46.565 19.8674 46.4275 20.8274 46.1625 21.7449L46.3275 21.8199C47.2525 22.2549 48.0025 22.9374 48.5625 23.8449C49.625 25.5574 50 28.0224 50 31.1649C50 34.7774 48.62 37.2299 46.845 38.7524C45.9203 39.5451 44.8383 40.133 43.67 40.4774C43.2429 42.4304 42.3712 44.2586 41.1225 45.8199C39.315 48.0799 36.5075 49.9899 32.73 49.9899C31.3714 49.9837 30.034 49.6519 28.83 49.0224C27.505 48.3424 26.875 46.8599 26.875 45.3699V37.4999ZM15 16.2499C15 15.9184 15.1317 15.6004 15.3661 15.366C15.6005 15.1316 15.9185 14.9999 16.25 14.9999C16.5815 14.9999 16.8995 15.1316 17.1339 15.366C17.3683 15.6004 17.5 15.9184 17.5 16.2499C17.5 16.5814 17.3683 16.8994 17.1339 17.1338C16.8995 17.3682 16.5815 17.4999 16.25 17.4999C15.9185 17.4999 15.6005 17.3682 15.3661 17.1338C15.1317 16.8994 15 16.5814 15 16.2499ZM16.25 32.4999C15.9185 32.4999 15.6005 32.6316 15.3661 32.866C15.1317 33.1004 15 33.4184 15 33.7499C15 34.0814 15.1317 34.3994 15.3661 34.6338C15.6005 34.8682 15.9185 34.9999 16.25 34.9999C16.5815 34.9999 16.8995 34.8682 17.1339 34.6338C17.3683 34.3994 17.5 34.0814 17.5 33.7499C17.5 33.4184 17.3683 33.1004 17.1339 32.866C16.8995 32.6316 16.5815 32.4999 16.25 32.4999ZM35 21.2499C35 21.5814 35.1317 21.8994 35.3661 22.1338C35.6005 22.3682 35.9185 22.4999 36.25 22.4999C36.5815 22.4999 36.8995 22.3682 37.1339 22.1338C37.3683 21.8994 37.5 21.5814 37.5 21.2499C37.5 20.9184 37.3683 20.6004 37.1339 20.366C36.8995 20.1316 36.5815 19.9999 36.25 19.9999C35.9185 19.9999 35.6005 20.1316 35.3661 20.366C35.1317 20.6004 35 20.9184 35 21.2499Z" fill="#F8F8F8"/>
</svg>
