<svg width="57" height="57" viewBox="0 0 57 57" fill="none" xmlns="http://www.w3.org/2000/svg">
<path d="M10.5137 47.6807L6.51297 3.57898H50.4885L46.4824 47.6737L28.474 52.579L10.5137 47.6807Z" fill="#1572B6"/>
<path d="M28.5007 48.8304L43.0535 44.8667L46.4771 7.18567H28.5007V48.8304Z" fill="#33A9DC"/>
<path d="M28.5007 23.1632H35.786L36.2884 17.6245H28.5007V12.2152H42.3054L42.1736 13.666L40.8216 28.5725H28.5007V23.1632Z" fill="white"/>
<path d="M28.5346 37.2105L28.5096 37.2175L22.3786 35.59L21.9867 31.2762H16.4595L17.2308 39.769L28.5078 42.8455L28.5346 42.8385V37.2105Z" fill="#EBEBEB"/>
<path d="M35.3176 28.3433L34.655 35.5865L28.515 37.214V42.842L39.801 39.769L39.8847 38.8555L40.8412 28.3433H35.3176Z" fill="white"/>
<path d="M28.5203 12.2152V17.6245H15.2215L15.1111 16.4082L14.8599 13.666L14.7281 12.2152H28.5203ZM28.5007 23.1632V28.5725H22.4463L22.3358 27.3562L22.0865 24.614L21.9547 23.1632H28.5007Z" fill="#EBEBEB"/>
</svg>
