<svg width="43" height="42" viewBox="0 0 43 42" fill="none" xmlns="http://www.w3.org/2000/svg">
<path d="M21.5 0.666672C18.7641 0.666672 16.055 1.20554 13.5274 2.25251C10.9998 3.29949 8.70315 4.83406 6.7686 6.76861C2.86159 10.6756 0.666656 15.9747 0.666656 21.5C0.666656 30.7083 6.64582 38.5208 14.9167 41.2917C15.9583 41.4583 16.2917 40.8125 16.2917 40.25V36.7292C10.5208 37.9792 9.29166 33.9375 9.29166 33.9375C8.33332 31.5208 6.97916 30.875 6.97916 30.875C5.08332 29.5833 7.12499 29.625 7.12499 29.625C9.20832 29.7708 10.3125 31.7708 10.3125 31.7708C12.125 34.9375 15.1875 34 16.375 33.5C16.5625 32.1458 17.1042 31.2292 17.6875 30.7083C13.0625 30.1875 8.20832 28.3958 8.20832 20.4583C8.20832 18.1458 8.99999 16.2917 10.3542 14.8125C10.1458 14.2917 9.41666 12.125 10.5625 9.3125C10.5625 9.3125 12.3125 8.75 16.2917 11.4375C17.9375 10.9792 19.7292 10.75 21.5 10.75C23.2708 10.75 25.0625 10.9792 26.7083 11.4375C30.6875 8.75 32.4375 9.3125 32.4375 9.3125C33.5833 12.125 32.8542 14.2917 32.6458 14.8125C34 16.2917 34.7917 18.1458 34.7917 20.4583C34.7917 28.4167 29.9167 30.1667 25.2708 30.6875C26.0208 31.3333 26.7083 32.6042 26.7083 34.5417V40.25C26.7083 40.8125 27.0417 41.4792 28.1042 41.2917C36.375 38.5 42.3333 30.7083 42.3333 21.5C42.3333 18.7641 41.7945 16.055 40.7475 13.5274C39.7005 10.9998 38.1659 8.70317 36.2314 6.76861C34.2968 4.83406 32.0002 3.29949 29.4726 2.25251C26.9449 1.20554 24.2359 0.666672 21.5 0.666672Z" fill="white"/>
</svg>
