<svg width="41" height="57" viewBox="0 0 41 57" fill="none" xmlns="http://www.w3.org/2000/svg">
<g clip-path="url(#clip0_29_101)">
<path d="M40.5 7.54565L36.8559 51.2207L20.4755 56.079L4.14031 51.2274L0.5 7.54565H40.5Z" fill="#E44D26"/>
<path d="M20.5 52.5033L33.6897 48.8729L36.7927 14.3593H20.5V52.5033Z" fill="#F16529"/>
<path d="M13.4409 24.2679H20.5V19.3137H7.98749L8.10686 20.6428L9.33338 34.2953H20.5V29.3411H13.897L13.4409 24.2679ZM14.5655 36.7725H9.55634L10.2554 44.5514L20.477 47.3685L20.5 47.3623V42.2078L20.4781 42.2135L14.9208 40.7237L14.5655 36.7725Z" fill="#EBEBEB"/>
<path d="M20.4828 34.2953H26.6274L26.0481 40.7206L20.4827 42.212V47.3662L30.7125 44.5514L30.7875 43.7144L31.9602 30.6715L32.0819 29.3411H20.4828V34.2953ZM20.4828 24.2558V24.2679H32.536L32.636 23.1545L32.8635 20.6428L32.9827 19.3137H20.4828V24.2558Z" fill="white"/>
</g>
<defs>
<clipPath id="clip0_29_101">
<rect width="40" height="56" fill="white" transform="translate(0.5 0.0789795)"/>
</clipPath>
</defs>
</svg>
