<svg width="47" height="46" viewBox="0 0 47 46" fill="none" xmlns="http://www.w3.org/2000/svg">
<g clip-path="url(#clip0_29_71)">
<path d="M35.9844 0.0789795H11.0156C4.93186 0.0789795 0 4.80098 0 10.6259V34.5321C0 40.357 4.93186 45.079 11.0156 45.079H35.9844C42.0681 45.079 47 40.357 47 34.5321V10.6259C47 4.80098 42.0681 0.0789795 35.9844 0.0789795Z" fill="#F0DB4F"/>
<path d="M12.3581 37.6842L15.9547 35.6001C16.6486 36.778 17.2798 37.7747 18.7939 37.7747C20.2453 37.7747 21.1603 37.2312 21.1603 35.1169V20.7383H25.5772V35.1767C25.5772 39.5566 22.8956 41.5503 18.9832 41.5503C15.45 41.5503 13.399 39.7983 12.3579 37.6838M27.9762 37.231L31.5724 35.2375C32.5192 36.7177 33.7497 37.8051 35.9264 37.8051C37.7566 37.8051 38.9235 36.929 38.9235 35.7207C38.9235 34.2709 37.7247 33.7572 35.7055 32.9117L34.6015 32.4584C31.4149 31.1597 29.301 29.5285 29.301 26.0849C29.301 22.9131 31.8251 20.4965 35.7688 20.4965C38.5767 20.4965 40.5959 21.433 42.047 23.8797L38.6081 25.9942C37.8508 24.6953 37.0309 24.1819 35.7688 24.1819C34.4752 24.1819 33.6549 24.9673 33.6549 25.9942C33.6549 27.2628 34.4752 27.7764 36.3681 28.562L37.4722 29.015C41.2265 30.5557 43.3404 32.1261 43.3404 35.6602C43.3404 39.4666 40.2171 41.5507 36.0211 41.5507C31.9198 41.5507 29.2696 39.6779 27.9762 37.231Z" fill="#323330"/>
</g>
<defs>
<clipPath id="clip0_29_71">
<rect width="47" height="45" fill="white" transform="translate(0 0.0789795)"/>
</clipPath>
</defs>
</svg>
