<svg width="61" height="61" viewBox="0 0 61 61" fill="none" xmlns="http://www.w3.org/2000/svg">
<g clip-path="url(#clip0_29_140)">
<path d="M46.3552 0.956787H14.4802C6.71366 0.956787 0.417664 7.25278 0.417664 15.0193V46.8943C0.417664 54.6608 6.71366 60.9568 14.4802 60.9568H46.3552C54.1217 60.9568 60.4177 54.6608 60.4177 46.8943V15.0193C60.4177 7.25278 54.1217 0.956787 46.3552 0.956787Z" fill="#023430"/>
<path d="M40.5363 26.1734C38.0667 15.2794 32.9198 12.3793 31.6069 10.3292C31.0654 9.42609 30.5858 8.48729 30.1713 7.51929C30.102 8.48726 29.9745 9.09663 29.1518 9.83069C27.5002 11.3033 20.4853 17.0197 19.8949 29.3977C19.3448 40.9388 28.3793 48.0551 29.5727 48.7908C30.4906 49.2425 31.6083 48.8005 32.1537 48.3858C36.5086 45.3971 42.4589 37.4288 40.541 26.1734" fill="#10AA50"/>
<path d="M30.5454 42.6453C30.3181 45.5018 30.1552 47.1617 29.5777 48.7941C29.5777 48.7941 29.9567 51.5135 30.2229 54.3942H31.1649C31.3895 52.3656 31.7326 50.3519 32.1924 48.3633C30.9729 47.7633 30.5923 45.1519 30.5454 42.6453Z" fill="#B8C4C2"/>
<path d="M32.1907 48.3649C30.9584 47.7957 30.6019 45.1292 30.5471 42.6453C30.8517 38.5477 30.9406 34.4369 30.8133 30.33C30.7486 28.1752 30.8438 10.3711 30.2824 7.7644C30.6665 8.64726 31.1089 9.50354 31.6069 10.3275C32.9199 12.3792 38.0684 15.2794 40.5363 26.1734C42.4589 37.4096 36.541 45.3567 32.1907 48.3649Z" fill="#12924F"/>
</g>
<defs>
<clipPath id="clip0_29_140">
<rect width="60" height="60" fill="white" transform="translate(0.417664 0.956787)"/>
</clipPath>
</defs>
</svg>
