<svg width="53" height="54" viewBox="0 0 53 54" fill="none" xmlns="http://www.w3.org/2000/svg">
<g clip-path="url(#clip0_29_131)">
<path d="M40.3125 0.456787H12.6875C5.95653 0.456787 0.5 6.01825 0.5 12.8787V41.0349C0.5 47.8953 5.95653 53.4568 12.6875 53.4568H40.3125C47.0435 53.4568 52.5 47.8953 52.5 41.0349V12.8787C52.5 6.01825 47.0435 0.456787 40.3125 0.456787Z" fill="#242938"/>
<path d="M24.8502 6.8988C25.8494 6.31601 27.1506 6.31331 28.1488 6.8988C33.1704 9.79102 38.1937 12.6785 43.2146 15.5724C44.1591 16.1146 44.7906 17.1858 44.7811 18.2948V35.6948C44.7882 36.8498 44.0941 37.9466 43.0978 38.4764C38.0926 41.3527 33.0898 44.2323 28.0854 47.1086C27.0659 47.7028 25.7385 47.657 24.7505 47.014C23.25 46.1275 21.7469 45.2451 20.2462 44.3594C19.9395 44.1731 19.5938 44.0249 19.3772 43.7218C19.5688 43.4589 19.911 43.4261 20.1891 43.3112C20.8154 43.1081 21.3908 42.7823 21.9661 42.4661C22.1117 42.3647 22.2892 42.4036 22.4288 42.4943C23.7119 43.2442 24.9839 44.016 26.2713 44.7586C26.5459 44.9203 26.824 44.7056 27.0588 44.5723C31.9704 41.7428 36.888 38.9243 41.799 36.0939C41.981 36.0047 42.0815 35.8078 42.0667 35.6047C42.0702 29.8648 42.0675 24.124 42.0685 18.3839C42.0892 18.1536 41.9584 17.9416 41.7539 17.8472C36.7662 14.9842 31.7807 12.117 26.7937 9.25336C26.7074 9.19278 26.605 9.16025 26.5002 9.16007C26.3953 9.15988 26.2929 9.19205 26.2063 9.25233C21.2192 12.117 16.2349 14.9871 11.2478 17.8497C11.044 17.9443 10.9073 18.1528 10.9315 18.3839C10.9325 24.124 10.9315 29.8648 10.9315 35.6055C10.9228 35.7047 10.9442 35.8042 10.9927 35.8906C11.0413 35.977 11.1146 36.0461 11.2029 36.0888C12.5335 36.8579 13.866 37.6216 15.1977 38.3882C15.9481 38.7996 16.869 39.0443 17.6958 38.729C18.425 38.4624 18.9362 37.7036 18.9224 36.9144C18.9293 31.208 18.919 25.5008 18.9275 19.795C18.9092 19.5418 19.1451 19.3325 19.3868 19.3565C20.0262 19.3519 20.6665 19.3476 21.3059 19.3581C21.5728 19.3519 21.7564 19.6248 21.7235 19.8799C21.7209 25.6225 21.7304 31.3651 21.7193 37.1076C21.7209 38.6381 21.104 40.3035 19.715 41.0523C18.0041 41.9556 15.8892 41.7641 14.1988 40.8979C12.7355 40.1534 11.3388 39.2748 9.90145 38.4773C8.90248 37.9504 8.21186 36.8492 8.21897 35.695V18.2948C8.2084 17.1628 8.86531 16.0721 9.83889 15.5378C14.8433 12.6594 19.8469 9.7786 24.8502 6.8988Z" fill="#81CD39"/>
<path d="M29.2162 18.952C31.3988 18.8088 33.7353 18.8671 35.6993 19.9632C37.2201 20.8029 38.0631 22.5655 38.0899 24.2874C38.0474 24.5195 37.8092 24.6477 37.5916 24.6317C36.9585 24.6309 36.3249 24.6406 35.6918 24.6274C35.4231 24.6379 35.2671 24.3856 35.2333 24.1435C35.0513 23.3196 34.6104 22.5036 33.8497 22.1061C32.6817 21.5103 31.3277 21.5403 30.0541 21.5527C29.1244 21.6028 28.1246 21.685 27.3369 22.2422C26.7322 22.6643 26.5485 23.5164 26.7643 24.2027C26.9678 24.6955 27.5258 24.8545 27.9826 25.0011C30.6129 25.7023 33.4001 25.6323 35.9802 26.555C37.0485 26.9312 38.0933 27.6627 38.459 28.8026C38.9373 30.3305 38.7277 32.1565 37.6611 33.3829C36.7962 34.3922 35.5366 34.9417 34.2803 35.24C32.609 35.6199 30.8745 35.6296 29.1772 35.4609C27.5812 35.2754 25.9203 34.8481 24.6883 33.7398C23.6347 32.8074 23.1202 31.3544 23.1712 29.9524C23.1834 29.7156 23.4147 29.5504 23.6373 29.5698C24.275 29.5646 24.9128 29.5628 25.5504 29.5709C25.8053 29.5522 25.994 29.7766 26.0072 30.0214C26.1246 30.8062 26.4141 31.6302 27.0858 32.0954C28.3817 32.9477 30.0082 32.8894 31.4922 32.9132C32.7217 32.8577 34.1019 32.8409 35.1052 32.0126C35.6345 31.5401 35.7913 30.7497 35.6483 30.0698C35.4933 29.4957 34.9041 29.2282 34.3981 29.0533C31.8015 28.2163 28.983 28.52 26.4116 27.5732C25.3676 27.1972 24.358 26.4863 23.9571 25.3932C23.3975 23.846 23.6538 21.9322 24.8321 20.7474C25.981 19.5684 27.6393 19.1143 29.2162 18.952Z" fill="#81CD39"/>
</g>
<defs>
<clipPath id="clip0_29_131">
<rect width="52" height="53" fill="white" transform="translate(0.5 0.456787)"/>
</clipPath>
</defs>
</svg>
