<svg width="56" height="51" viewBox="0 0 56 51" fill="none" xmlns="http://www.w3.org/2000/svg">
<path d="M46.0429 17.1105C45.4469 16.9055 44.8459 16.7156 44.2404 16.5409C44.3421 16.1243 44.4358 15.7127 44.5189 15.3083C45.8834 8.66769 44.9914 3.31791 41.9445 1.55651C39.0231 -0.132088 34.2455 1.62866 29.4204 5.83853C28.9449 6.25417 28.4799 6.68179 28.0259 7.12098C27.722 6.82894 27.4127 6.54256 27.0983 6.26199C22.0413 1.76068 16.9726 -0.136474 13.9289 1.62997C11.0102 3.32383 10.146 8.353 11.3744 14.6464C11.4967 15.2697 11.6347 15.8898 11.7883 16.5061C11.0708 16.7105 10.3785 16.928 9.71591 17.1596C3.78705 19.2319 0.000793457 22.4795 0.000793457 25.8482C0.000793457 29.3273 4.06551 32.817 10.2407 34.933C10.7413 35.1039 11.2461 35.2622 11.7546 35.4078C11.5895 36.0716 11.4428 36.7398 11.3149 37.4118C10.1438 43.596 11.0583 48.5063 13.9692 50.1894C16.9756 51.9276 22.0216 50.1412 26.9348 45.8352C27.3333 45.4852 27.7229 45.1252 28.1034 44.7556C28.595 45.2312 29.0998 45.6929 29.6171 46.1403C34.3765 50.246 39.0769 51.9039 41.9849 50.2162C44.9885 48.473 45.9648 43.198 44.6974 36.7802C44.5975 36.2774 44.4856 35.7771 44.3616 35.2798C44.716 35.1745 45.0638 35.0662 45.4028 34.9534C51.8225 32.8212 55.9995 29.3738 55.9995 25.8482C55.9995 22.4673 52.091 19.1977 46.0429 17.1105ZM44.6506 32.6771C44.3443 32.7787 44.0302 32.8767 43.71 32.9721C43.0012 30.7227 42.0449 28.3311 40.8744 25.8598C41.9913 23.4475 42.9109 21.0863 43.5997 18.8517C44.1726 19.0179 44.7284 19.1931 45.2644 19.378C50.4464 21.1666 53.6073 23.8107 53.6073 25.8482C53.6073 28.0184 50.1936 30.8357 44.6506 32.6771ZM42.3507 37.246C42.9111 40.0837 42.9909 42.6495 42.6197 44.6554C42.2864 46.4578 41.6157 47.6594 40.7862 48.1407C39.0216 49.1648 35.2476 47.8337 31.1774 44.3223C30.6962 43.9064 30.2267 43.4771 29.7693 43.035C31.3474 41.305 32.9243 39.2938 34.4634 37.06C37.1706 36.8192 39.7281 36.4254 42.0475 35.8879C42.1592 36.3381 42.2603 36.7909 42.3507 37.246ZM19.092 47.9637C17.3678 48.5741 15.9945 48.5916 15.1644 48.1118C13.398 47.0905 12.6637 43.1477 13.6653 37.8591C13.7844 37.2342 13.9207 36.6127 14.0742 35.9953C16.3679 36.5041 18.9069 36.8699 21.6204 37.0905C23.17 39.2762 24.7925 41.2852 26.4276 43.0444C26.0801 43.3815 25.7244 43.71 25.3608 44.0295C23.188 45.9335 21.0108 47.2844 19.092 47.9637ZM11.0146 32.6637C8.28401 31.728 6.02896 30.512 4.48331 29.185C3.09428 27.9927 2.39321 26.8087 2.39321 25.8482C2.39321 23.8039 5.4331 21.1964 10.5034 19.4243C11.1187 19.2094 11.7627 19.0065 12.431 18.8162C13.1318 21.1012 14.051 23.4905 15.1603 25.9065C14.0366 28.3583 13.1043 30.7857 12.3966 33.0977C11.9325 32.9644 11.4717 32.8197 11.0146 32.6637ZM13.7222 14.1857C12.6698 8.79379 13.3687 4.72646 15.1277 3.70563C17.001 2.61835 21.1436 4.16857 25.5099 8.05541C25.7947 8.30944 26.0748 8.56862 26.3501 8.83282C24.7231 10.5844 23.1156 12.5784 21.5798 14.7512C18.9461 14.996 16.425 15.389 14.1072 15.9155C13.9644 15.3423 13.836 14.7654 13.7222 14.1857ZM37.8776 20.1657C37.3301 19.2177 36.7623 18.2816 36.1746 17.358C37.9613 17.5846 39.6732 17.8852 41.2808 18.2528C40.7982 19.8037 40.1967 21.4249 39.4886 23.0872C38.9711 22.1027 38.4339 21.1287 37.8776 20.1657ZM28.027 10.5471C29.1304 11.7455 30.2355 13.0835 31.3224 14.5352C29.1175 14.4308 26.9089 14.4304 24.7039 14.5339C25.7919 13.0955 26.9064 11.7594 28.027 10.5471ZM18.1133 20.1819C17.5639 21.1372 17.0368 22.1051 16.5324 23.085C15.836 21.4287 15.2399 19.7999 14.7532 18.2271C16.3509 17.8688 18.0547 17.5758 19.83 17.3534C19.2358 18.2826 18.6634 19.2258 18.1133 20.1819ZM19.881 34.5135C18.0468 34.3083 16.3174 34.0304 14.7201 33.6817C15.2145 32.0809 15.8237 30.4175 16.5353 28.7256C17.0416 29.7062 17.5709 30.6747 18.1227 31.6304C18.6901 32.6129 19.2777 33.5752 19.881 34.5135ZM28.0931 41.3184C26.9591 40.092 25.8282 38.7352 24.7238 37.276C25.7961 37.3181 26.8891 37.3396 28.0001 37.3396C29.1415 37.3396 30.2698 37.314 31.3804 37.2644C30.29 38.7499 29.189 40.1087 28.0931 41.3184ZM39.5112 28.6392C40.2597 30.3497 40.8906 32.0043 41.3915 33.5778C39.768 33.9493 38.0149 34.2484 36.1679 34.4705C36.7597 33.5299 37.3329 32.5775 37.887 31.614C38.4503 30.6346 38.9918 29.6427 39.5112 28.6392ZM35.8148 30.4157C34.9665 31.893 34.0706 33.3422 33.1284 34.7611C31.4217 34.8823 29.7112 34.9425 28.0001 34.9416C26.2574 34.9416 24.5623 34.8872 22.9301 34.7811C21.9633 33.3655 21.0502 31.9137 20.1929 30.4289C19.3396 28.9519 18.5428 27.443 17.8038 25.9054C18.5409 24.3675 19.3356 22.8578 20.1859 21.3798L20.1857 21.38C21.0357 19.9015 21.9415 18.456 22.901 17.0464C24.5663 16.9201 26.274 16.8543 27.9999 16.8543C29.7337 16.8543 31.4438 16.9208 33.1087 17.048C34.0585 18.4554 34.9585 19.896 35.8069 21.367C36.6601 22.8419 37.4652 24.3441 38.221 25.8714C37.473 27.4143 36.6704 28.9301 35.8148 30.4157ZM40.7497 3.63414C42.6248 4.71835 43.3541 9.0905 42.1759 14.8241C42.1007 15.1898 42.0162 15.5624 41.9243 15.9403C39.6008 15.4026 37.078 15.0028 34.4367 14.7543C32.8981 12.5576 31.3036 10.5605 29.7031 8.83151C30.1225 8.42614 30.552 8.03128 30.991 7.6473C35.1253 4.0405 38.9892 2.61638 40.7497 3.63414ZM28.0001 20.835C30.7618 20.835 33.0006 23.0795 33.0006 25.8482C33.0006 28.6168 30.7618 30.8613 28.0001 30.8613C25.2385 30.8613 22.9996 28.6168 22.9996 25.8482C22.9996 23.0795 25.2385 20.835 28.0001 20.835Z" fill="#00D8FF"/>
</svg>
