<svg width="53" height="32" viewBox="0 0 53 32" fill="none" xmlns="http://www.w3.org/2000/svg">
<path d="M26.5123 0.342163C19.6359 0.342163 15.3379 3.82176 13.6188 10.7808C16.1975 7.30116 19.2059 5.99633 22.6443 6.86629C24.6059 7.36253 26.008 8.80293 27.5601 10.3971C30.0884 12.9943 33.0144 16.0001 39.4057 16.0001C46.2822 16.0001 50.5801 12.5205 52.2992 5.56146C49.7205 9.04106 46.7121 10.3459 43.2738 9.47593C41.3121 8.97969 39.91 7.53929 38.3579 5.94516C35.8296 3.34795 32.9036 0.342163 26.5123 0.342163ZM13.6188 16.0001C6.74241 16.0001 2.44446 19.4797 0.725403 26.4387C3.30409 22.9591 6.31249 21.6542 9.75081 22.5242C11.7124 23.0204 13.1146 24.4608 14.6666 26.055C17.195 28.6522 20.121 31.658 26.5123 31.658C33.3887 31.658 37.6867 28.1784 39.4057 21.2194C36.827 24.699 33.8186 26.0038 30.3803 25.1338C28.4187 24.6376 27.0165 23.1972 25.4645 21.6031C22.9362 19.0058 20.0102 16.0001 13.6188 16.0001Z" fill="url(#paint0_linear_29_116)"/>
<defs>
<linearGradient id="paint0_linear_29_116" x1="-142.547" y1="1002.45" x2="4338.06" y2="3555.24" gradientUnits="userSpaceOnUse">
<stop stop-color="#2298BD"/>
<stop offset="1" stop-color="#0ED7B5"/>
</linearGradient>
</defs>
</svg>
