<svg width="55" height="54" viewBox="0 0 55 54" fill="none" xmlns="http://www.w3.org/2000/svg">
<path d="M16.39 6.77705C18.2967 5.31905 20.79 4.51355 23.2673 4.51355C24.75 4.51355 25.9485 5.01305 26.8583 5.8073C27.1028 6.0233 27.322 6.2513 27.516 6.4913C27.7101 6.2513 27.9293 6.0233 28.1738 5.8073C29.0835 5.01305 30.2821 4.51355 31.7648 4.51355C34.2421 4.51355 36.7377 5.31905 38.6398 6.77705C40.1248 7.9088 41.2867 9.47255 41.7427 11.3603C42.7052 11.5178 43.56 11.9993 44.2521 12.6361C45.3521 13.6508 46.1381 15.1178 46.6308 16.6275C47.1327 18.1598 47.3825 19.8811 47.3069 21.5348C47.2679 22.3808 47.1419 23.2448 46.9013 24.0705L47.0502 24.1381C47.8981 24.5296 48.5856 25.1438 49.1013 25.9605C50.0752 27.5018 50.419 29.7203 50.419 32.5485C50.419 35.7998 49.1517 38.007 47.5246 39.3773C46.677 40.0908 45.6851 40.6199 44.6142 40.9298C44.2234 42.6873 43.425 44.3327 42.2813 45.738C40.6244 47.772 38.0485 49.4911 34.5881 49.4911C31.8152 49.4911 29.6313 47.9836 28.2288 46.5435C27.9792 46.2869 27.7421 46.0189 27.5183 45.7403C27.2938 46.0182 27.0559 46.2855 26.8056 46.5413C25.4031 47.9858 23.2192 49.4911 20.4463 49.4911C16.9835 49.4911 14.4077 47.772 12.7531 45.738C11.6077 44.3331 10.8078 42.6877 10.4156 40.9298C9.34553 40.6196 8.35444 40.0905 7.5075 39.3773C5.88042 38.0048 4.61542 35.7998 4.61542 32.5485C4.61542 29.7203 4.95917 27.5018 5.93083 25.9605C6.44683 25.1218 7.21564 24.4613 8.13083 24.0705C7.89753 23.2433 7.76144 22.3925 7.72521 21.5348C7.64958 19.8811 7.89938 18.1598 8.40125 16.6275C8.89396 15.12 9.67771 13.6508 10.78 12.6361C11.4676 11.9738 12.3417 11.5294 13.2894 11.3603C13.7477 9.4703 14.9073 7.9088 16.39 6.77705ZM18.5029 9.4388C17.2517 10.3951 16.5183 11.6685 16.5183 13.1355C16.5181 13.4028 16.4533 13.6662 16.3291 13.904C16.205 14.1418 16.0251 14.3473 15.8042 14.5035C15.5833 14.6597 15.3279 14.7622 15.0588 14.8025C14.7897 14.8428 14.5147 14.8197 14.2565 14.7353C13.9425 14.6318 13.6102 14.6565 13.1335 15.0975C12.6019 15.5858 12.0633 16.47 11.6738 17.658C11.2821 18.861 11.1083 20.1221 11.1604 21.384C11.2177 22.635 11.5202 23.6745 11.9969 24.3765C12.0748 24.4934 12.1387 24.6187 12.1871 24.75H14.6667C16.3166 24.7497 17.9055 25.3625 19.1141 26.4652C20.3227 27.568 21.0615 29.0789 21.1819 30.6945C22.1691 31.0813 22.9887 31.7929 23.5004 32.7076C24.0122 33.6222 24.1842 34.6831 23.9871 35.7086C23.79 36.734 23.236 37.6604 22.42 38.329C21.6039 38.9977 20.5766 39.3671 19.5137 39.374C18.4508 39.3809 17.4185 39.025 16.5935 38.367C15.7685 37.709 15.202 36.79 14.9911 35.7672C14.7802 34.7443 14.9379 33.6813 15.4372 32.7601C15.9365 31.8389 16.7464 31.1166 17.7283 30.717C17.6195 29.9963 17.2504 29.338 16.6883 28.8622C16.1263 28.3863 15.4088 28.1247 14.6667 28.125H8.65104C8.30729 28.908 8.05292 30.2603 8.05292 32.5485C8.05292 34.8458 8.90313 36.1058 9.74646 36.8168C10.67 37.5931 11.6852 37.7955 11.9785 37.7955C12.4344 37.7955 12.8716 37.9733 13.1939 38.2898C13.5162 38.6063 13.6973 39.0355 13.6973 39.483C13.6973 40.4281 14.229 42.1448 15.439 43.6298C16.6031 45.063 18.2623 46.1161 20.4463 46.1161C21.906 46.1161 23.249 45.3105 24.3192 44.2125C24.8371 43.677 25.2404 43.1213 25.5063 42.6713C25.6056 42.5023 25.6936 42.3272 25.7698 42.147L25.7835 42.1156V20.8125H23.7302C23.3313 21.7806 22.602 22.5824 21.667 23.0804C20.7321 23.5784 19.6499 23.7417 18.6058 23.5422C17.5618 23.3427 16.6209 22.7929 15.9444 21.987C15.2679 21.1812 14.898 20.1694 14.898 19.125C14.898 18.0807 15.2679 17.0689 15.9444 16.2631C16.6209 15.4572 17.5618 14.9074 18.6058 14.7079C19.6499 14.5084 20.7321 14.6717 21.667 15.1697C22.602 15.6677 23.3313 16.4695 23.7302 17.4375H25.7835V11.727L25.7767 11.5988C25.7365 10.906 25.5977 10.222 25.3642 9.56705C25.1579 9.02705 24.8898 8.6063 24.5735 8.32955C24.2917 8.08205 23.9021 7.88855 23.2673 7.88855C21.5119 7.88855 19.7725 8.46905 18.5006 9.44105M29.2508 38.25V42.1156L29.2623 42.147C29.3081 42.267 29.3967 42.4418 29.5281 42.6713C29.7917 43.1213 30.195 43.677 30.7152 44.2125C31.7831 45.3105 33.1283 46.1161 34.5881 46.1161C36.7698 46.1161 38.429 45.063 39.5954 43.6298C40.8031 42.1448 41.3371 40.4258 41.3371 39.483C41.3371 39.0355 41.5182 38.6063 41.8405 38.2898C42.1628 37.9733 42.6 37.7955 43.0558 37.7955C43.3492 37.7956 44.3621 37.5931 45.2879 36.8168C46.129 36.1058 46.9792 34.8458 46.9792 32.5485C46.9792 29.8305 46.6171 28.431 46.1794 27.7403C46.0424 27.5014 45.8346 27.3091 45.5835 27.189C45.3521 27.081 45.0038 27 44.4652 27C44.1541 27 43.8489 26.9171 43.582 26.7602C43.3152 26.6032 43.0967 26.3781 42.9499 26.1088C42.8032 25.8395 42.7336 25.5362 42.7486 25.2311C42.7636 24.926 42.8627 24.6307 43.0352 24.3765C43.5119 23.6745 43.8144 22.635 43.874 21.384C43.9253 20.122 43.7508 18.8609 43.3583 17.658C42.9688 16.47 42.4302 15.588 41.9008 15.0975C41.4219 14.6565 41.0896 14.6318 40.7779 14.7353C40.5195 14.8202 40.2443 14.8436 39.9749 14.8035C39.7055 14.7634 39.4497 14.661 39.2286 14.5047C39.0074 14.3485 38.8273 14.1428 38.703 13.9048C38.5787 13.6667 38.5138 13.4031 38.5138 13.1355C38.5138 11.6685 37.7804 10.3951 36.5292 9.4388C35.2619 8.46905 33.5202 7.8863 31.7625 7.8863C31.13 7.8863 30.7427 8.08205 30.4585 8.3273C30.1007 8.67351 29.8307 9.09739 29.6702 9.5648C29.4109 10.2582 29.2692 10.9886 29.2508 11.727V34.875H30.7083C31.5288 34.875 32.3158 34.555 32.8959 33.9854C33.4761 33.4157 33.8021 32.6431 33.8021 31.8375V27.7988C32.8161 27.4072 31.9995 26.6911 31.4922 25.7731C30.985 24.8552 30.8187 23.7927 31.0219 22.7676C31.2251 21.7425 31.785 20.8187 32.6059 20.1546C33.4267 19.4904 34.4572 19.1272 35.5208 19.1272C36.5845 19.1272 37.615 19.4904 38.4358 20.1546C39.2566 20.8187 39.8166 21.7425 40.0198 22.7676C40.2229 23.7927 40.0567 24.8552 39.5494 25.7731C39.0422 26.6911 38.2256 27.4072 37.2396 27.7988V31.8375C37.2396 33.5382 36.5515 35.1693 35.3266 36.3719C34.1018 37.5744 32.4405 38.25 30.7083 38.25H29.2508ZM19.4792 18C19.1753 18 18.8838 18.1186 18.6689 18.3296C18.4541 18.5405 18.3333 18.8267 18.3333 19.125C18.3333 19.4234 18.4541 19.7096 18.6689 19.9205C18.8838 20.1315 19.1753 20.25 19.4792 20.25C19.7831 20.25 20.0745 20.1315 20.2894 19.9205C20.5043 19.7096 20.625 19.4234 20.625 19.125C20.625 18.8267 20.5043 18.5405 20.2894 18.3296C20.0745 18.1186 19.7831 18 19.4792 18ZM18.3333 34.875C18.3333 35.1734 18.4541 35.4596 18.6689 35.6705C18.8838 35.8815 19.1753 36 19.4792 36C19.7831 36 20.0745 35.8815 20.2894 35.6705C20.5043 35.4596 20.625 35.1734 20.625 34.875C20.625 34.5767 20.5043 34.2905 20.2894 34.0796C20.0745 33.8686 19.7831 33.75 19.4792 33.75C19.1753 33.75 18.8838 33.8686 18.6689 34.0796C18.4541 34.2905 18.3333 34.5767 18.3333 34.875ZM34.375 23.625C34.375 23.9234 34.4957 24.2096 34.7106 24.4205C34.9255 24.6315 35.2169 24.75 35.5208 24.75C35.8247 24.75 36.1162 24.6315 36.3311 24.4205C36.5459 24.2096 36.6667 23.9234 36.6667 23.625C36.6667 23.3267 36.5459 23.0405 36.3311 22.8296C36.1162 22.6186 35.8247 22.5 35.5208 22.5C35.2169 22.5 34.9255 22.6186 34.7106 22.8296C34.4957 23.0405 34.375 23.3267 34.375 23.625Z" fill="#F8F8F8"/>
</svg>
