<svg width="44" height="32" viewBox="0 0 44 32" fill="none" xmlns="http://www.w3.org/2000/svg">
<path d="M25.9525 19.6436H17.3017C16.1074 19.6436 15.139 20.5232 15.139 21.6079V29.4653C15.139 30.55 16.1074 31.4297 17.3017 31.4297H25.9525C27.1467 31.4297 28.1152 30.55 28.1152 29.4653V21.6079C28.1152 20.5232 27.1467 19.6436 25.9525 19.6436ZM12.9762 1.96436C12.9762 0.879663 12.0078 0 10.8135 0H2.16271C0.968488 0 0 0.879663 0 1.96436V9.82178C0 10.9065 0.968488 11.7861 2.16271 11.7861H8.63191L13.5764 19.646C14.3266 18.476 15.7067 17.6792 17.3017 17.6792H17.3206L12.9762 10.7739V7.85742H28.1152V3.92871H12.9762V1.96436ZM41.0915 0H32.4406C31.2464 0 30.2779 0.879663 30.2779 1.96436V9.82178C30.2779 10.9065 31.2464 11.7861 32.4406 11.7861H41.0915C42.2857 11.7861 43.2542 10.9065 43.2542 9.82178V1.96436C43.2542 0.879663 42.2857 0 41.0915 0Z" fill="#F8F8F8"/>
</svg>
