<svg width="61" height="55" viewBox="0 0 61 55" fill="none" xmlns="http://www.w3.org/2000/svg">
<g clip-path="url(#clip0_29_146)">
<path d="M18.3497 36.1766L20.1729 43.9883C20.5826 45.762 20.7534 47.0001 20.685 47.7058C21.6822 44.1793 22.3789 40.3361 22.7754 36.1766H24.9678C24.0251 42.9484 22.7817 47.8694 21.2383 50.9392C20.0358 53.3048 18.7185 54.4876 17.284 54.4876C16.9016 54.4876 16.43 54.335 15.8705 54.032V52.3997C16.1439 52.4526 16.4646 52.4809 16.8335 52.4809C17.5027 52.4809 18.0421 52.236 18.4524 51.7472C18.9437 51.1516 19.1897 50.4823 19.1897 49.7404C19.1897 49.2338 18.9979 48.1942 18.616 46.6215L16.0756 36.1766H18.3497ZM4.39527 31.3752L7.73484 44.8298H7.75546L11.1155 31.3752H13.8608C14.4619 38.0477 14.817 44.1528 14.9259 49.6867H12.6114C12.53 44.5136 12.3044 39.6493 11.9356 35.0927H11.9154L8.39092 49.6867H6.62833L3.12517 35.0927H3.10455C2.84465 39.4687 2.68107 44.3331 2.61287 49.6867H0.502258C0.638654 43.1757 0.979993 37.0725 1.52628 31.3752H4.39527Z" fill="#00758F"/>
<path d="M41.8075 31.1034C45.3998 31.1034 47.196 34.1339 47.196 40.192C47.196 43.484 46.6558 45.9706 45.5765 47.6505C45.382 47.9575 45.167 48.2227 44.9406 48.4684L47.4827 50.1281L47.4803 50.128L46.5777 52.1862L43.267 49.6355C42.7183 49.8501 42.1145 49.9573 41.4565 49.9573C39.6926 49.9573 38.3751 49.2785 37.504 47.9226C36.5478 46.4227 36.07 44.0614 36.07 40.8428C36.07 37.5693 36.6092 35.0922 37.6889 33.4101C38.6722 31.8715 40.0453 31.1034 41.8075 31.1034ZM30.8068 31.1299C32.0907 31.1299 33.2581 31.5835 34.3097 32.4876L33.7756 34.0592C32.8758 33.5542 31.9886 33.3006 31.1138 33.3006C30.4039 33.3006 29.8569 33.5262 29.4756 33.9801C29.0922 34.4301 28.8551 35.0091 28.8551 35.7149C28.8551 36.7996 29.4402 37.7402 30.5207 38.5348C30.8747 38.7903 31.2275 39.0488 31.579 39.3102L31.6596 39.3701L31.7 39.4001L31.7808 39.46L31.8211 39.49L31.9017 39.55C32.7196 40.1589 33.4892 40.74 33.4892 40.74C34.5696 41.7527 35.1082 42.8324 35.1082 44.6107C35.1082 46.1637 34.6772 47.4385 33.818 48.436C32.9583 49.4291 31.8033 49.927 30.3568 49.927C29.004 49.927 27.6929 49.3539 26.4229 48.2172L27.017 46.6443C28.1099 47.3676 29.0989 47.7289 29.987 47.7289C30.8199 47.7289 31.4719 47.4834 31.9435 46.9985C32.4142 46.51 32.6963 45.8287 32.6963 44.9649C32.6963 43.8776 32.1235 42.9481 31.0728 42.1685C30.7439 41.9285 30.416 41.6863 30.0891 41.4417L30.0086 41.3815C29.8607 41.2712 29.7118 41.1595 29.5659 41.0501L29.4868 40.9907C28.7773 40.4578 28.1638 39.9922 28.1638 39.9922C27.1134 38.9777 26.5867 37.8892 26.5867 36.0956C26.5867 34.6122 26.9795 33.4132 27.7639 32.5011C28.5502 31.587 29.5646 31.1299 30.8068 31.1299ZM51.4178 31.375V47.4339H55.7813V49.6864H49.2048V31.3751L51.4178 31.375ZM58.2059 47.4408V47.8215H57.7262V49.6844H57.3594V47.8215H56.8611V47.4408H58.2059ZM59.0918 47.4408L59.5524 48.9702L59.9756 47.4408H60.4955V49.6844H60.1498V47.977L59.6682 49.6844H59.419L58.9366 47.977H58.918V49.6844H58.591V47.4408H59.0918ZM41.5815 33.3553C39.4646 33.3553 38.4055 35.6623 38.4055 40.2732C38.4055 42.9144 38.6862 44.8296 39.2464 46.0234C39.7653 47.1281 40.5779 47.6794 41.6844 47.6794C43.8014 47.6794 44.8603 45.3545 44.8603 40.7068C44.8603 38.1025 44.5797 36.2037 44.0201 35.0094C43.5007 33.9071 42.6884 33.3553 41.5817 33.3553" fill="#F29111"/>
<path d="M36.0329 1.67784C36.7352 -0.600679 39.1906 1.12485 40.1435 1.92077C40.3771 2.1199 40.6449 2.5406 40.9127 2.69611C41.3304 2.71777 41.7478 2.76094 42.1662 2.78399C42.9511 3.02753 43.6863 3.22651 44.3047 3.69162C47.1789 5.92667 49.0499 8.20426 50.7718 11.9663C51.1397 12.7632 51.3236 13.6255 51.6242 14.4878C52.0413 15.7731 52.51 17.1223 52.9942 18.3377C53.211 18.9139 53.3787 19.5546 53.6797 20.0412C53.7972 20.2637 54.1311 20.3294 54.3306 20.4623C54.8823 20.8393 55.5507 21.1256 56.0695 21.5681C57.0385 22.3659 57.9753 23.3165 58.827 24.2898C59.1444 24.6654 59.3607 25.1972 59.6632 25.5946V25.7951C59.3947 25.9039 59.1272 26.0153 58.8594 26.1046C58.2746 26.3029 57.7566 26.2581 57.1892 26.4566C56.8386 26.5909 56.4033 26.768 56.0356 26.8131L56.0695 26.8582C56.2859 27.6744 57.4562 28.3382 57.9915 28.8264C58.6416 29.4459 59.244 30.1973 59.7289 31.0602C59.8963 31.2804 60.0638 31.4807 60.2304 31.7003C60.3469 31.9228 60.3797 32.2106 60.4976 32.409V32.4761C60.3671 32.4153 60.2732 32.2992 60.1842 32.1779L60.1312 32.1048C60.0781 32.032 60.0245 31.9606 59.9635 31.9016C59.5946 31.5689 59.2283 31.171 58.8594 30.8617C58.2253 30.3303 57.4897 30.022 56.8386 29.4886C56.4704 29.179 56.1195 28.8264 55.7685 28.4721C55.4504 28.1615 55.1 27.5652 54.9001 27.1227C54.7823 26.8782 54.7662 26.5909 54.6317 26.414C54.6557 26.1186 54.8606 26.0309 55.0674 25.9588L55.115 25.9423C55.1864 25.9178 55.2562 25.8934 55.3171 25.861C56.1859 25.3739 57.2216 25.1972 58.5591 25.2415C58.5087 24.798 57.673 24.2455 57.4062 23.98C56.8707 23.4703 56.3037 22.9385 55.7356 22.4747C55.4346 22.2317 54.9158 22.0544 54.5823 21.8559C54.1311 21.6124 53.1281 21.369 52.8781 20.9051C52.4533 20.1739 52.1482 19.3016 51.852 18.4206L51.7713 18.1802C51.7444 18.1 51.7175 18.0199 51.6905 17.9399C51.3404 16.8789 50.9054 15.7728 50.5544 14.6864C50.3709 14.1565 50.2867 13.6914 50.0857 13.1831C48.8663 10.0641 47.0614 7.45275 44.8731 5.61628C44.1539 5.01872 43.3521 4.46573 42.4669 4.08989C41.9653 3.88983 41.3632 4.00046 40.8288 3.84697H40.477C40.1768 3.73526 39.9262 3.31502 39.6919 3.09345C39.1746 2.62957 38.6564 2.31811 38.0377 1.98714C37.8209 1.85439 37.2019 1.54524 36.9858 1.78863C36.852 1.83303 36.7841 1.89972 36.7512 2.07704C36.6181 2.34162 36.7352 2.7402 36.818 2.98421C37.069 3.69132 37.4196 4.11156 37.7379 4.70912C38.021 5.23906 38.3726 5.83662 38.5733 6.41282C39.0064 7.65142 39.2081 9.0237 39.6094 10.2621C39.7582 10.7279 39.9936 11.2578 40.2103 11.6779C40.3939 12.0113 40.7278 12.2524 40.8288 12.6745C41.0301 13.117 40.5274 14.5772 40.411 15.0409C39.9757 16.8554 40.0601 19.3776 40.5614 20.9504L40.5881 21.0334L40.6148 21.1174C40.7978 21.6934 40.9938 22.3137 41.4804 22.4748C41.5139 22.4309 41.4804 22.4539 41.5468 22.4309C41.6646 21.2135 41.6978 20.0411 42.0156 19.0886C42.1992 18.493 42.5658 18.072 42.8172 17.5859C42.9847 17.7183 42.9847 18.1177 43.0846 18.3819C43.3021 19.0674 43.5356 19.8189 43.8037 20.5064C44.354 21.9221 44.9731 23.2947 45.6747 24.5332C45.9096 24.9755 46.243 25.4624 46.5437 25.8609C46.6776 26.0151 46.8276 26.1043 46.9282 26.3028H46.9611V26.3696C46.4598 26.1256 46.142 25.4408 45.7422 25.041C44.9894 24.2895 44.088 23.1609 43.5691 22.0779C43.3521 21.4562 43.1175 20.8604 42.8836 20.2418V20.1971C42.7837 20.3738 42.8172 20.5492 42.7671 20.8166C42.5501 21.9221 42.7172 23.1833 41.9653 23.581C41.1129 24.0467 40.4771 22.8294 40.2103 22.2763C39.3577 20.4403 39.1242 17.3429 39.7254 14.8427C39.859 14.2892 39.8772 13.6255 40.1104 13.1836C40.06 12.784 39.8268 12.6748 39.6919 12.43C39.458 12.0116 39.2578 11.5243 39.0746 11.0596C38.7228 10.152 38.4726 9.06749 38.2055 8.09409C38.0881 7.6966 38.0545 7.29756 37.9374 6.92126C37.7377 6.34691 37.3697 5.7707 37.0858 5.26258C36.7013 4.53226 35.5815 3.11681 36.0329 1.67784ZM41.5136 6.01254C41.5582 6.07165 41.6121 6.12333 41.6679 6.17423L41.7351 6.2352C41.8248 6.3172 41.9116 6.40354 41.9648 6.52113C42.0492 6.67679 42.0649 6.83043 42.1659 6.9864C42.1659 7.5182 42.0492 7.87175 41.8135 8.09208C41.8135 8.09208 41.7975 8.11529 41.781 8.13695C41.6474 7.78247 41.5303 7.42985 41.3958 7.07568C41.2301 6.76653 40.9959 6.52129 40.8609 6.16804H40.8284V6.12364C41.0301 6.05788 41.2301 6.01254 41.5136 6.01254Z" fill="#00758F"/>
</g>
<defs>
<clipPath id="clip0_29_146">
<rect width="60" height="54" fill="white" transform="translate(0.5 0.543213)"/>
</clipPath>
</defs>
</svg>
