<svg width="47" height="40" viewBox="0 0 47 40" fill="none" xmlns="http://www.w3.org/2000/svg">
<path d="M39.3922 8.27097H32.4406V6.20323C32.4406 4.55803 31.7082 2.98021 30.4046 1.81688C29.1009 0.653553 27.3327 0 25.4891 0H20.8547C19.011 0 17.2429 0.653553 15.9392 1.81688C14.6355 2.98021 13.9031 4.55803 13.9031 6.20323V8.27097H6.95156C5.10789 8.27097 3.33974 8.92452 2.03607 10.0879C0.732395 11.2512 0 12.829 0 14.4742V33.0839C0 34.7291 0.732395 36.3069 2.03607 37.4702C3.33974 38.6336 5.10789 39.2871 6.95156 39.2871H39.3922C41.2359 39.2871 43.004 38.6336 44.3077 37.4702C45.6114 36.3069 46.3437 34.7291 46.3438 33.0839V14.4742C46.3437 12.829 45.6114 11.2512 44.3077 10.0879C43.004 8.92452 41.2359 8.27097 39.3922 8.27097ZM18.5375 6.20323C18.5375 5.65483 18.7816 5.12889 19.2162 4.74111C19.6507 4.35334 20.2401 4.13549 20.8547 4.13549H25.4891C26.1036 4.13549 26.693 4.35334 27.1276 4.74111C27.5621 5.12889 27.8063 5.65483 27.8063 6.20323V8.27097H18.5375V6.20323ZM41.7094 33.0839C41.7094 33.6323 41.4652 34.1582 41.0307 34.546C40.5961 34.9338 40.0067 35.1516 39.3922 35.1516H6.95156C6.33701 35.1516 5.74762 34.9338 5.31306 34.546C4.87851 34.1582 4.63438 33.6323 4.63438 33.0839V22.6418H11.5859V24.8129C11.5859 25.3613 11.8301 25.8872 12.2646 26.275C12.6992 26.6628 13.2886 26.8807 13.9031 26.8807C14.5177 26.8807 15.1071 26.6628 15.5416 26.275C15.9762 25.8872 16.2203 25.3613 16.2203 24.8129V22.6418H30.1234V24.8129C30.1234 25.3613 30.3676 25.8872 30.8021 26.275C31.2367 26.6628 31.8261 26.8807 32.4406 26.8807C33.0552 26.8807 33.6446 26.6628 34.0791 26.275C34.5137 25.8872 34.7578 25.3613 34.7578 24.8129V22.6418H41.7094V33.0839ZM41.7094 18.6097H4.63438V14.4742C4.63438 13.9258 4.87851 13.3999 5.31306 13.0121C5.74762 12.6243 6.33701 12.4065 6.95156 12.4065H39.3922C40.0067 12.4065 40.5961 12.6243 41.0307 13.0121C41.4652 13.3999 41.7094 13.9258 41.7094 14.4742V18.6097Z" fill="#F5F5F5"/>
</svg>
